<?xml version="1.0" standalone="no"?>
<!DOCTYPE svg PUBLIC "-//W3C//DTD SVG 20010904//EN"
 "http://www.w3.org/TR/2001/REC-SVG-20010904/DTD/svg10.dtd">
<svg version="1.0" xmlns="http://www.w3.org/2000/svg"
 width="1088.000000pt" height="1280.000000pt" viewBox="0 0 1088.000000 1280.000000"
 preserveAspectRatio="xMidYMid meet">
<metadata>
Created by potrace 1.15, written by Peter Selinger 2001-2017
</metadata>
<g transform="translate(0.000000,1280.000000) scale(0.100000,-0.100000)"
fill="#0093a5" stroke="none">
<path d="M361 12784 c-169 -45 -301 -180 -346 -351 -13 -50 -15 -768 -15
-6033 0 -5265 2 -5983 15 -6033 45 -173 178 -307 350 -352 53 -13 603 -15
5075 -15 4472 0 5022 2 5075 15 172 45 305 179 350 352 13 48 15 162 15 700
l0 643 -3267 0 c-2184 0 -3290 4 -3333 10 -121 19 -274 81 -360 144 -64 48
-171 160 -215 227 -55 82 -78 135 -101 235 -18 76 -19 205 -19 3544 0 3324 1
3468 18 3530 26 92 96 234 151 307 123 162 337 288 547 322 43 8 1102 11 3322
11 l3257 0 0 1168 c0 1016 -2 1175 -15 1227 -45 172 -179 305 -352 350 -50 13
-658 15 -5078 14 -4351 0 -5027 -2 -5074 -15z m2529 -563 l0 -188 -452 -173
c-446 -170 -779 -285 -951 -330 -48 -13 -85 -25 -83 -27 2 -3 131 0 286 6 156
6 489 11 741 11 l459 0 0 -175 0 -175 -1100 0 -1100 0 0 185 c0 140 3 187 13
190 6 2 217 81 467 174 420 156 731 268 938 336 46 15 81 29 79 31 -2 2 -118
-3 -258 -12 -140 -8 -476 -18 -746 -21 l-493 -6 0 182 0 181 1100 0 1100 0 0
-189z m-785 -1331 c519 -70 787 -273 811 -615 26 -353 -234 -583 -761 -675
-194 -34 -525 -31 -734 5 -266 46 -515 165 -623 297 -98 120 -130 209 -132
358 0 114 14 176 62 260 119 210 384 336 797 380 100 11 473 4 580 -10z m-307
-2112 l1092 -182 0 -212 0 -211 -42 -6 c-24 -3 -230 -37 -458 -75 -228 -39
-514 -82 -635 -96 -267 -31 -313 -38 -300 -42 6 -2 91 -15 190 -29 258 -37
423 -65 836 -145 200 -39 374 -73 387 -75 22 -5 22 -6 22 -208 l0 -202 -483
-77 c-1094 -176 -1664 -268 -1689 -274 l-28 -6 0 211 0 210 33 6 c139 23 1132
130 1460 156 86 7 157 16 157 19 0 3 -51 12 -112 18 -91 10 -1407 226 -1510
248 l-28 6 0 163 0 163 28 6 c221 44 1273 200 1467 217 72 7 133 15 137 18 4
4 -137 22 -315 40 -342 34 -1257 138 -1294 146 -23 5 -23 6 -23 200 0 107 3
195 8 195 4 0 499 -82 1100 -182z m233 -1968 c517 -51 809 -231 875 -538 40
-190 -12 -369 -145 -501 -174 -173 -474 -267 -893 -278 -463 -13 -809 80
-1019 274 -185 171 -238 425 -134 639 78 159 218 264 453 338 79 25 262 61
347 69 91 8 420 6 516 -3z m859 -1840 l0 -470 -1100 0 -1100 0 0 200 0 200
920 0 920 0 0 270 0 270 180 0 180 0 0 -470z m0 -1180 l0 -470 -1100 0 -1100
0 0 200 0 200 918 2 917 3 3 268 2 267 180 0 180 0 0 -470z m-880 -740 c569
-50 876 -258 906 -613 13 -149 -35 -294 -132 -405 -134 -153 -385 -253 -733
-293 -137 -15 -507 -7 -621 15 -455 86 -717 287 -760 584 -44 296 129 524 485
640 87 29 292 69 385 75 107 8 364 6 470 -3z m-950 -1780 l0 -250 285 0 285 0
0 235 0 235 175 0 175 0 0 -235 0 -235 455 0 455 0 0 -205 0 -205 -1100 0
-1100 0 0 455 0 455 185 0 185 0 0 -250z"/>
<path d="M1605 10478 c-335 -14 -534 -84 -562 -196 -19 -74 18 -137 106 -185
111 -61 272 -88 566 -94 420 -10 657 31 771 130 101 89 69 207 -75 269 -145
62 -451 91 -806 76z"/>
<path d="M1522 6390 c-227 -21 -382 -70 -447 -141 -30 -33 -35 -46 -35 -87 0
-118 117 -186 405 -234 53 -9 173 -13 360 -13 246 1 294 4 398 23 208 39 312
98 337 190 10 39 9 49 -12 90 -56 113 -272 168 -683 176 -121 3 -266 1 -323
-4z"/>
<path d="M1560 2630 c-311 -21 -495 -93 -519 -202 -9 -39 6 -98 34 -128 27
-30 126 -78 205 -99 149 -40 224 -46 530 -45 255 1 309 4 400 21 189 37 286
88 321 169 50 112 -44 202 -259 248 -160 35 -484 51 -712 36z"/>
<path d="M5679 8338 c-229 -20 -397 -124 -492 -306 -76 -144 -84 -282 -27
-429 103 -268 324 -405 628 -391 139 7 247 43 366 122 162 108 236 251 236
459 0 357 -293 581 -711 545z"/>
<path d="M8885 6796 c-319 -53 -569 -191 -736 -406 -34 -44 -70 -80 -79 -80
-27 0 -41 63 -49 218 -7 128 -10 146 -30 165 -21 22 -25 22 -504 27 -265 3
-497 2 -516 -2 -72 -14 -65 135 -73 -1625 -5 -1077 -4 -1599 2 -1625 14 -52
51 -69 149 -71 42 -1 266 -1 497 1 398 2 423 3 445 21 l24 19 5 989 5 988 26
80 c36 117 87 202 168 278 188 177 495 226 721 115 87 -42 185 -141 228 -230
93 -191 101 -306 102 -1425 0 -772 1 -794 19 -812 11 -11 35 -23 53 -26 18 -3
250 -5 514 -3 456 3 483 4 503 22 11 10 23 33 26 50 3 17 1 521 -4 1121 -9
1028 -11 1095 -29 1180 -37 166 -142 403 -244 552 -62 89 -186 209 -279 269
-134 87 -320 164 -484 200 -97 21 -359 27 -460 10z"/>
<path d="M5252 6710 c-33 -15 -43 -26 -52 -57 -8 -27 -10 -485 -8 -1626 l3
-1589 24 -19 c22 -18 46 -19 546 -19 445 0 526 2 538 15 23 23 29 459 25 1930
-2 1067 -5 1314 -16 1333 -28 49 -44 50 -548 50 -435 0 -474 -1 -512 -18z"/>
</g>
</svg>
